<svg height="35" viewBox="0 0 65 35" width="65" xmlns="http://www.w3.org/2000/svg"><g fill="none" fill-rule="evenodd"><path d="m0 .854h1v34.146h-1zm63.567 0h1v34.146h-1z" fill="#f60"/><path d="m30.301 27.927-.343-.106c-.528.598-1.202.877-1.975.864v.292c.576.12 1.202.107 1.692-.16v3.949c-.515.877-1.398 1.542-2.355 1.542-.956 0-1.496-.692-1.496-1.742v-4.639l-.331-.106c-.516.598-1.043.877-1.804.864v.292c.516.12 1.08.107 1.522-.12v3.75c0 1.196.527 2.26 2.011 2.26 1.043 0 1.941-.63 2.466-1.477l.012 1.343.037.027 1.914-.2v-.358h-1.351v-6.275zm4.38 3.07c-.798-.212-1.804-.504-1.804-1.448 0-.625.417-1.183 1.472-1.183.945 0 1.435.452 1.877 1.29l.392.744.307-.067-.393-2.512h-.33l-.013 1.103c-.344-.598-.957-1.077-1.926-1.077-1.226 0-1.962.745-1.962 1.715 0 1.343 1.41 1.755 2.257 1.994 1.153.32 1.938.625 1.938 1.529 0 .797-.626 1.276-1.57 1.276-.982 0-1.595-.532-2.196-1.595l-.38-.678-.32.066.405 2.592h.344l-.037-1.249c.466.837 1.178 1.37 2.257 1.37 1.251 0 2.073-.719 2.073-1.835 0-1.29-1.043-1.662-2.392-2.034zm8.77.24c.012-.093.012-.306.012-.425 0-1.463-.847-2.965-2.613-2.965-1.73 0-2.87 1.436-2.87 3.51 0 2.073 1.153 3.51 2.98 3.51 1.338 0 2.11-.679 2.417-1.702l-.38-.147c-.346.858-.963 1.316-1.963 1.316-1.545 0-2.453-1.156-2.453-2.964v-.133zm-2.613-2.858c.994 0 2 .705 2.036 2.34h-4.256c.184-1.423 1.018-2.34 2.22-2.34zm-20.215-.532c-1.803 0-2.969 1.423-2.969 3.51 0 2.073 1.166 3.51 2.957 3.51 1.803 0 2.98-1.437 2.98-3.51 0-2.087-1.177-3.51-2.968-3.51zm0 6.487c-1.435 0-2.355-1.196-2.355-2.977 0-1.795.92-2.978 2.355-2.978 1.447 0 2.367 1.196 2.367 2.978 0 1.781-.92 2.977-2.367 2.977zm-4.71-8.348 1.803-.146v-.412h-4.269v.412l1.816.133v3.59h-4.785v-3.59l1.816-.133v-.412h-4.269v.412l1.791.146v8.07l-1.79.132v.412h4.268v-.412l-1.816-.133v-3.961h4.785v3.961l-1.816.133v.412h4.269v-.412l-1.803-.133zm-3.625-16.453-1.901-.133v-3.257h2.907c1.521 0 2.404-1.17 2.404-2.739 0-1.542-.932-2.632-2.465-2.632h-5.287v.412l1.779.146v8.07l-1.78.133v.412h4.343zm-1.901-8.23h2.723c1.202 0 1.938.838 1.938 2.088 0 1.263-.638 2.22-1.84 2.22h-2.821v-4.307zm35.536.546c.294 0 .54-.253.54-.572s-.246-.571-.54-.571c-.295 0-.528.252-.528.571 0 .32.233.572.528.572zm-33.635 20.1-1.901-.133v-3.417h2.527l1.79 3.962h2.245v-.412l-1.827-.2-1.522-3.349c1.435-.08 2.281-1.196 2.281-2.645 0-1.489-.957-2.552-2.428-2.552h-5.507v.412l1.79.146v8.056l-1.79.133v.412h4.342v-.412zm-1.901-8.216h2.858c1.214 0 1.987.798 1.987 2.02 0 1.224-.65 2.101-1.963 2.101h-2.882v-4.12zm8.476-3.522c1.337 0 2.11-.678 2.417-1.702l-.38-.146c-.347.857-.964 1.316-1.963 1.316-1.546 0-2.454-1.157-2.454-2.965v-.133h4.87c.012-.093.012-.305.012-.425 0-1.462-.846-2.964-2.612-2.964-1.73 0-2.87 1.435-2.87 3.509s1.152 3.51 2.98 3.51zm-.123-6.488c.994 0 2 .705 2.036 2.34h-4.256c.184-1.423 1.018-2.34 2.22-2.34zm11.236 7.458c0 1.024.896 1.874 2.711 1.874 1.902 0 2.895-.864 2.895-2.007 0-1.263-1.361-1.597-2.698-1.715-.994-.093-1.914-.133-1.914-.664 0-.266.245-.519 1.337-.519h.405c1.472 0 2.416-1.09 2.416-2.5 0-.637-.22-1.236-.6-1.674.085-1.21 1.066-.612 1.066-1.236 0-.266-.147-.4-.392-.4-.564 0-.994.612-1.067 1.277a2.267 2.267 0 0 0 -1.35-.425c-1.496 0-2.465 1.09-2.465 2.459 0 .997.466 1.755 1.14 2.154-.662.066-1.017.438-1.017.943 0 .36.208.705.76.904-.712.2-1.227.824-1.227 1.529zm.908-5.504c0-1.076.748-1.967 1.865-1.967 1.079 0 1.815.89 1.815 1.994 0 1.037-.7 1.94-1.852 1.94-1.043 0-1.828-.89-1.828-1.967zm1.006 4.135 1.226.12c1.436.14 1.877.584 1.877 1.17 0 .81-.76 1.435-2.294 1.435-1.373 0-2.158-.598-2.158-1.396 0-.598.466-1.17 1.349-1.33zm-8.476-5.65v5.264l-1.46.133v.386h3.471v-.372l-1.398-.134v-4.067c.503-.918 1.386-1.609 2.355-1.609.97 0 1.51.691 1.51 1.755v3.921l-1.424.134v.372h3.349v-.386l-1.313-.133v-3.974c0-1.21-.54-2.26-2-2.26-1.042 0-1.956.635-2.49 1.515v-1.437l-.343-.106c-.502.598-1.165.877-1.962.864v.293c.589.12 1.214.106 1.705-.16zm13.714.04v3.748c0 1.196.527 2.26 2.011 2.26 1.043 0 1.942-.63 2.466-1.476l.012 1.343.037.026 1.914-.2v-.358h-1.35v-6.275l-.343-.106c-.528.598-1.202.877-1.975.864v.293c.577.12 1.202.106 1.693-.16v3.949c-.516.877-1.399 1.542-2.356 1.542-.956 0-1.496-.691-1.496-1.741v-4.641l-.331-.106c-.515.598-1.043.877-1.803.864v.293c.515.12 1.08.106 1.52-.12zm17.639 1.25c0-1.21-.54-2.26-2-2.26-1.03 0-1.944.635-2.477 1.515v-1.437l-.344-.106c-.503.598-1.165.877-1.963.864v.293c.59.12 1.215.106 1.705-.16v5.264l-1.46.133v.386h3.472v-.372l-1.398-.134v-4.066c.503-.918 1.386-1.609 2.343-1.609.969 0 1.508.691 1.508 1.755v3.921l-1.422.134v.372h3.348v-.386l-1.312-.133zm-.025 12.362c0-1.21-.466-2.193-1.766-2.193-.994 0-1.773.57-2.294 1.449-.169-.81-.662-1.45-1.68-1.45-.896 0-1.736.623-2.245 1.463v-1.382l-.344-.107c-.515.599-1.177.864-1.962.864v.28c.576.12 1.214.093 1.705-.173v5.277l-1.46.133v.386h3.201v-.373l-1.128-.132v-4.136c.466-.877 1.239-1.528 2.085-1.528.982 0 1.3.717 1.3 1.807v3.856l-1.202.132v.373h3.03v-.373l-1.214-.132v-3.935c0-.08 0-.173-.012-.266.515-.944 1.226-1.462 2.06-1.462.994 0 1.313.73 1.313 1.794v3.869l-1.116.132v.373h3.066v-.373l-1.337-.146v-4.028zm-17.81-5.423-.332-.107c-.535.746-1.19 1.144-1.95 1.13v.293c.585.14 1.263.001 1.668-.304v3.241c-.441-.65-1.128-1.023-1.962-1.023-1.718 0-2.87 1.449-2.87 3.55 0 2.06 1.017 3.455 2.722 3.455.933 0 1.72-.471 2.122-1.276l.013 1.144.036.026 1.938-.2v-.358h-1.385zm-.614 8.215c-.307.944-1.067 1.489-2.012 1.489-1.386 0-2.208-1.143-2.208-2.951 0-1.768.92-2.991 2.331-2.991.822 0 1.533.452 1.89 1.196v3.257zm-6.22-2.738c0-1.21-.539-2.247-1.998-2.247-1.043 0-1.957.635-2.49 1.502v-1.422l-.344-.107c-.503.599-1.165.864-1.963.864v.28c.59.12 1.215.106 1.706-.16v5.264l-1.46.133v.386h3.471v-.373l-1.398-.132v-4.068c.503-.917 1.386-1.595 2.355-1.595s1.509.678 1.509 1.741v3.922l-1.423.132v.373h3.349v-.386l-1.313-.133v-3.974zm14.083-8.309v.386h3.496v-.386l-1.423-.133v-6.141l-.344-.12c-.527.598-1.202.877-1.974.864v.293c.576.12 1.214.092 1.705-.173v5.277zm-22.891 11.991c.108.582.491.878 1.019.878.576 0 .957-.332 1.08-1.023l-.283-.133c-.098.412-.282.638-.613.638-.43 0-.626-.24-.626-1.09v-2.885c0-1.33-.503-2.313-2.134-2.313-.957 0-1.509.306-1.89.678-.33.332-.428.638-.428.824 0 .226.147.386.368.386.294 0 .33-.306.502-.652.209-.399.528-.704 1.399-.704.981 0 1.57.571 1.57 1.715v.744c-2.625.026-4.11.838-4.11 2.353 0 .997.712 1.661 1.828 1.661 1.006 0 1.822-.538 2.319-1.076zm-3.544-.584c0-.944.748-1.821 3.508-1.874v1.927c-.43.519-1.276 1.077-2.184 1.077-.723 0-1.324-.372-1.324-1.13zm23.465-5.344c-1.803 0-2.968 1.409-2.968 3.496 0 2.074 1.165 3.51 2.956 3.51 1.803 0 2.98-1.436 2.98-3.51 0-2.087-1.177-3.496-2.968-3.496zm0 6.474c-1.435 0-2.355-1.196-2.355-2.978 0-1.794.92-2.964 2.355-2.964 1.448 0 2.368 1.183 2.368 2.964 0 1.782-.92 2.978-2.368 2.978z" fill="#fff"/></g></svg>